<svg width="364" height="109" viewBox="0 0 364 109" fill="none" xmlns="http://www.w3.org/2000/svg">
<g clip-path="url(#clip0_279_293)">
<path d="M20.75 1.1875H34.9062V17.2188H50.375V1.1875H64.5938V47H50.375V28.4688H34.9062V47H20.75V1.1875ZM70.2988 24.125C70.2988 16.6458 72.3821 10.8229 76.5488 6.65625C80.7154 2.48958 86.5175 0.40625 93.955 0.40625C101.58 0.40625 107.455 2.45833 111.58 6.5625C115.705 10.6458 117.768 16.375 117.768 23.75C117.768 29.1042 116.861 33.5 115.049 36.9375C113.257 40.3542 110.653 43.0208 107.236 44.9375C103.84 46.8333 99.6008 47.7812 94.5175 47.7812C89.3508 47.7812 85.0696 46.9583 81.6738 45.3125C78.2988 43.6667 75.5592 41.0625 73.455 37.5C71.3508 33.9375 70.2988 29.4792 70.2988 24.125ZM84.455 24.1875C84.455 28.8125 85.3092 32.1354 87.0175 34.1562C88.7467 36.1771 91.0904 37.1875 94.0488 37.1875C97.0904 37.1875 99.4446 36.1979 101.111 34.2188C102.778 32.2396 103.611 28.6875 103.611 23.5625C103.611 19.25 102.736 16.1042 100.986 14.125C99.2571 12.125 96.9029 11.125 93.9238 11.125C91.0696 11.125 88.7779 12.1354 87.0488 14.1562C85.3196 16.1771 84.455 19.5208 84.455 24.1875ZM121.004 31.8438L134.473 31C134.764 33.1875 135.358 34.8542 136.254 36C137.712 37.8542 139.795 38.7812 142.504 38.7812C144.525 38.7812 146.077 38.3125 147.16 37.375C148.264 36.4167 148.816 35.3125 148.816 34.0625C148.816 32.875 148.295 31.8125 147.254 30.875C146.212 29.9375 143.795 29.0521 140.004 28.2188C133.795 26.8229 129.368 24.9688 126.723 22.6562C124.056 20.3438 122.723 17.3958 122.723 13.8125C122.723 11.4583 123.4 9.23958 124.754 7.15625C126.129 5.05208 128.181 3.40625 130.91 2.21875C133.66 1.01042 137.42 0.40625 142.191 0.40625C148.045 0.40625 152.504 1.5 155.566 3.6875C158.65 5.85417 160.483 9.3125 161.066 14.0625L147.723 14.8438C147.368 12.7812 146.618 11.2812 145.473 10.3438C144.348 9.40625 142.785 8.9375 140.785 8.9375C139.139 8.9375 137.9 9.29167 137.066 10C136.233 10.6875 135.816 11.5312 135.816 12.5312C135.816 13.2604 136.16 13.9167 136.848 14.5C137.514 15.1042 139.098 15.6667 141.598 16.1875C147.785 17.5208 152.212 18.875 154.879 20.25C157.566 21.6042 159.514 23.2917 160.723 25.3125C161.952 27.3333 162.566 29.5938 162.566 32.0938C162.566 35.0312 161.754 37.7396 160.129 40.2188C158.504 42.6979 156.233 44.5833 153.316 45.875C150.4 47.1458 146.723 47.7812 142.285 47.7812C134.493 47.7812 129.098 46.2812 126.098 43.2812C123.098 40.2812 121.4 36.4688 121.004 31.8438ZM20.75 62.1875H55.75V72.0312H34.9688V80.0312H52.7188V89.2812H34.9688V108H20.75V62.1875ZM61.6425 108V62.1875H85.2363C89.6113 62.1875 92.955 62.5625 95.2675 63.3125C97.58 64.0625 99.4446 65.4583 100.861 67.5C102.278 69.5208 102.986 71.9896 102.986 74.9062C102.986 77.4479 102.445 79.6458 101.361 81.5C100.278 83.3333 98.7883 84.8229 96.8925 85.9688C95.6842 86.6979 94.0279 87.3021 91.9238 87.7812C93.6113 88.3438 94.8404 88.9062 95.6113 89.4688C96.1321 89.8438 96.8821 90.6458 97.8613 91.875C98.8613 93.1042 99.5279 94.0521 99.8613 94.7188L106.705 108H90.705L83.1425 94C82.1842 92.1875 81.33 91.0104 80.58 90.4688C79.5592 89.7604 78.4029 89.4062 77.1113 89.4062H75.8613V108H61.6425ZM75.8613 80.75H81.83C82.4758 80.75 83.7258 80.5417 85.58 80.125C86.5175 79.9375 87.2779 79.4583 87.8613 78.6875C88.4654 77.9167 88.7675 77.0312 88.7675 76.0312C88.7675 74.5521 88.2988 73.4167 87.3613 72.625C86.4238 71.8333 84.6633 71.4375 82.08 71.4375H75.8613V80.75ZM109.91 62.1875H124.098V108H109.91V62.1875ZM129.896 92.8438L143.365 92C143.657 94.1875 144.25 95.8542 145.146 97C146.605 98.8542 148.688 99.7812 151.396 99.7812C153.417 99.7812 154.969 99.3125 156.052 98.375C157.157 97.4167 157.709 96.3125 157.709 95.0625C157.709 93.875 157.188 92.8125 156.146 91.875C155.105 90.9375 152.688 90.0521 148.896 89.2188C142.688 87.8229 138.261 85.9688 135.615 83.6562C132.948 81.3438 131.615 78.3958 131.615 74.8125C131.615 72.4583 132.292 70.2396 133.646 68.1562C135.021 66.0521 137.073 64.4062 139.802 63.2188C142.552 62.0104 146.313 61.4062 151.084 61.4062C156.938 61.4062 161.396 62.5 164.459 64.6875C167.542 66.8542 169.375 70.3125 169.959 75.0625L156.615 75.8438C156.261 73.7812 155.511 72.2812 154.365 71.3438C153.24 70.4062 151.677 69.9375 149.677 69.9375C148.032 69.9375 146.792 70.2917 145.959 71C145.125 71.6875 144.709 72.5312 144.709 73.5312C144.709 74.2604 145.052 74.9167 145.74 75.5C146.407 76.1042 147.99 76.6667 150.49 77.1875C156.677 78.5208 161.105 79.875 163.771 81.25C166.459 82.6042 168.407 84.2917 169.615 86.3125C170.844 88.3333 171.459 90.5938 171.459 93.0938C171.459 96.0312 170.646 98.7396 169.021 101.219C167.396 103.698 165.125 105.583 162.209 106.875C159.292 108.146 155.615 108.781 151.177 108.781C143.386 108.781 137.99 107.281 134.99 104.281C131.99 101.281 130.292 97.4688 129.896 92.8438ZM174.914 85.125C174.914 77.6458 176.997 71.8229 181.164 67.6562C185.33 63.4896 191.133 61.4062 198.57 61.4062C206.195 61.4062 212.07 63.4583 216.195 67.5625C220.32 71.6458 222.383 77.375 222.383 84.75C222.383 90.1042 221.476 94.5 219.664 97.9375C217.872 101.354 215.268 104.021 211.851 105.938C208.455 107.833 204.216 108.781 199.133 108.781C193.966 108.781 189.685 107.958 186.289 106.312C182.914 104.667 180.174 102.062 178.07 98.5C175.966 94.9375 174.914 90.4792 174.914 85.125ZM189.07 85.1875C189.07 89.8125 189.924 93.1354 191.633 95.1562C193.362 97.1771 195.705 98.1875 198.664 98.1875C201.705 98.1875 204.06 97.1979 205.726 95.2188C207.393 93.2396 208.226 89.6875 208.226 84.5625C208.226 80.25 207.351 77.1042 205.601 75.125C203.872 73.125 201.518 72.125 198.539 72.125C195.685 72.125 193.393 73.1354 191.664 75.1562C189.935 77.1771 189.07 80.5208 189.07 85.1875ZM187.945 51.4688H196.07V59.2812H187.945V51.4688ZM201.195 51.4688H209.414V59.2812H201.195V51.4688ZM228.275 108V62.1875H251.869C256.244 62.1875 259.587 62.5625 261.9 63.3125C264.212 64.0625 266.077 65.4583 267.494 67.5C268.91 69.5208 269.619 71.9896 269.619 74.9062C269.619 77.4479 269.077 79.6458 267.994 81.5C266.91 83.3333 265.421 84.8229 263.525 85.9688C262.317 86.6979 260.66 87.3021 258.556 87.7812C260.244 88.3438 261.473 88.9062 262.244 89.4688C262.765 89.8438 263.515 90.6458 264.494 91.875C265.494 93.1042 266.16 94.0521 266.494 94.7188L273.337 108H257.337L249.775 94C248.817 92.1875 247.962 91.0104 247.212 90.4688C246.192 89.7604 245.035 89.4062 243.744 89.4062H242.494V108H228.275ZM242.494 80.75H248.462C249.108 80.75 250.358 80.5417 252.212 80.125C253.15 79.9375 253.91 79.4583 254.494 78.6875C255.098 77.9167 255.4 77.0312 255.4 76.0312C255.4 74.5521 254.931 73.4167 253.994 72.625C253.056 71.8333 251.296 71.4375 248.712 71.4375H242.494V80.75ZM275.949 62.1875H313.886V71.9688H290.136V79.25H312.167V88.5938H290.136V97.625H314.574V108H275.949V62.1875ZM320.404 62.1875H333.622L350.872 87.5312V62.1875H364.216V108H350.872L333.716 82.8438V108H320.404V62.1875Z" fill="#A4A4A4"/>
<rect width="6" height="107" fill="#A4A4A4"/>
</g>
<defs>
<clipPath id="clip0_279_293">
<rect width="364" height="109" fill="white"/>
</clipPath>
</defs>
</svg>
